<?xml version="1.0" encoding="iso-8859-1"?>
<!-- Generator: Adobe Illustrator 19.0.0, SVG Export Plug-In . SVG Version: 6.00 Build 0)  -->
<svg version="1.1" id="Layer_1" xmlns="http://www.w3.org/2000/svg" xmlns:xlink="http://www.w3.org/1999/xlink" x="0px" y="0px"
	 viewBox="0 0 478.993 478.993" style="enable-background:new 0 0 478.993 478.993;" xml:space="preserve">
<g transform="translate(0 -540.36)">
	<g>
		<g>
			<path d="M478.714,978.023c0-0.1,0-0.3-0.1-0.4l-8.3-41.6c6-18,7.2-37.6,3.3-56.7c-6.5-33.9-28.9-62.1-60.2-76.1l-44.1-216.7
				l-0.1-0.4c-6.2-23.2-27.5-37.3-49.8-32.8l-285.4,59.7c-11,2.2-20.5,8.6-26.8,18.1s-8.6,20.8-6.4,31.8l59.6,286.4
				c2.2,11.2,9.1,21.1,18.8,27.2c6.5,4,13.8,6.1,21.1,6.1c3.4,0,6.8-0.4,10.1-1.3l117.3-23.9c18.5,30.6,54.3,46.5,89.2,39
				c1.6,0,3.1-0.1,4.9-0.6c15.3,7.5,31.7,11.4,47.8,11.4c7.2,0,14.3-0.8,21.2-2.3c15.2-3.1,29.3-9.3,42-18.6
				c1,6.4,4.7,12.1,10.1,15.6c5.2,3.4,11.5,4.4,17.4,2.9C472.614,1003.123,480.614,991.323,478.714,978.023z M107.214,966.724
				l-0.4,0.1c-6.7,1.8-13.7,0.7-19.6-3c-6.2-3.9-10.6-10.2-12-17.4l-59.7-286.4c-2.9-14.6,6.9-29.4,21.4-32.3l285.6-59.8
				c1.7-0.3,3.4-0.5,5.1-0.5c12.3,0,23.4,8.9,27.1,22.3l58.2,286.3l0.1,0.4c3.7,13.9-5.3,28-20.6,32.2L107.214,966.724z
				 M457.814,990.323c-0.3,0-0.7,0.1-1,0.2c-2.6,0.7-4.6-0.2-5.6-0.9c-1.9-1.2-3.2-3.2-3.5-5.4c0-0.1,0-0.3-0.1-0.4l-2.5-12.5
				c-0.5-2.7-2.4-4.8-5-5.7c-2.6-0.8-5.4-0.2-7.4,1.6c-13.2,12-28.2,19.8-44.8,23.1c-0.1,0-0.1,0-0.2,0c-20.2,4.5-42.2,1.2-61.9-9.3
				c-2.1-1.1-4.7-1.2-6.9-0.1c-0.9,0.4-0.9,0.4-2.8,0.4c-0.5,0-1.1,0.1-1.6,0.2c-27.1,6-54.9-5.1-70.9-27.5l152.2-31l0.4-0.1
				c23.4-6.3,37.2-28.3,31.4-50.3l-10.3-50.7c21.6,13.1,36.8,34.7,41.7,60.1c3.5,17.5,2.3,34.6-3.4,50.8c-0.5,1.3-0.6,2.7-0.3,4
				l8.6,43.4C464.514,984.724,462.414,989.724,457.814,990.323z"/>
			<path d="M354.314,818.523l-24.6,5.1l-15.7-75.9l26-5.4c4.1-0.8,6.7-4.8,5.8-8.9c-0.8-4.1-4.8-6.7-8.9-5.8l-25.9,5.4l-14.2-68.5
				l27-5.6c4.1-0.8,6.7-4.8,5.8-8.9c-0.8-4.1-4.8-6.7-8.9-5.8l-27,5.6l-5.1-24.7c-0.8-4.1-4.8-6.7-8.9-5.8c-4.1,0.8-6.7,4.8-5.8,8.9
				l5.1,24.7l-76.7,15.9l-5.7-27.5c-0.8-4.1-4.8-6.7-8.9-5.8c-4.1,0.8-6.7,4.8-5.8,8.9l5.7,27.5l-75.6,15.7l-6-28.8
				c-0.8-4.1-4.8-6.7-8.9-5.8c-4.1,0.8-6.7,4.8-5.8,8.9l6,28.9l-16.3,3.4c-4.1,0.8-6.7,4.8-5.8,8.9c0.7,3.5,3.9,6,7.3,6
				c0.5,0,1-0.1,1.5-0.2l16.3-3.4l14.2,68.5l-17.3,3.6c-4.1,0.8-6.7,4.8-5.8,8.9c0.7,3.5,3.9,6,7.3,6c0.5,0,1-0.1,1.5-0.2l17.3-3.6
				l15.6,75.7l-19.9,4.1c-4.1,0.8-6.7,4.8-5.8,8.9c0.7,3.5,3.9,6,7.3,6c0.5,0,1-0.1,1.5-0.2l19.9-4.1l4.8,23.2c0.7,3.5,3.9,6,7.3,6
				c0.5,0,1-0.1,1.5-0.2c4.1-0.8,6.7-4.8,5.8-8.9l-4.8-23.2l75.5-15.6l5.3,25.6c0.7,3.5,3.9,6,7.3,6c0.5,0,1-0.1,1.5-0.2
				c4.1-0.8,6.7-4.8,5.8-8.9l-5.3-25.7l76.9-15.9l5.6,27.1c0.7,3.5,3.9,6,7.3,6c0.5,0,1-0.1,1.5-0.2c4.1-0.8,6.7-4.8,5.8-8.9
				l-5.6-27.1l24.6-5.1c4.5-0.699,7.1-4.699,6.3-8.8C362.414,820.224,358.414,817.623,354.314,818.523z M282.114,667.523l14.2,68.5
				l-76.7,16l-14.1-68.6L282.114,667.523z M115.114,702.224l75.6-15.7l14.1,68.6l-75.6,15.7L115.114,702.224z M148.014,861.224
				l-15.6-75.7l75.6-15.7l15.6,75.8L148.014,861.224z M238.214,842.524l-15.6-75.8l76.8-16l15.7,75.9L238.214,842.524z"/>
		</g>
	</g>
</g>
<g>
</g>
<g>
</g>
<g>
</g>
<g>
</g>
<g>
</g>
<g>
</g>
<g>
</g>
<g>
</g>
<g>
</g>
<g>
</g>
<g>
</g>
<g>
</g>
<g>
</g>
<g>
</g>
<g>
</g>
</svg>
